# xmcd
#
# Track frame offsets:
#	183
#	10443
#	22743
#	35405
#	47563
#	59148
#	66960
#	80455
#	94280
#	103768
#	117018
#	128478
#	141233
#	153230
#	161205
#	171473
#	181475
#	190333
#	202770
#	214108
#	225935
#	239098
#	253160
#	263065
#	280403
#	294475
#
# Disc length: 4113 seconds
#
# Revision: 1
# Processed by: cddbd v1.5.2PL0 Copyright (c) Steve Scherf et al.
# Submitted via: audiograbber 1.83.01
#
DISCID=7c100f1a
DTITLE=Belton Richard and The Musical Aces - Modern Sounds in Cajun Music
DYEAR=1993
DGENRE=CO
TTITLE0=Cajun Stripper
TTITLE1=I'll have to forget You
TTITLE2=Just un Reve (Just a Dream)
TTITLE3=Un Autre Soir D'ennui (Another Sleepless Night)
TTITLE4=Cajun Waltz
TTITLE5=San Antonio Rose
TTITLE6=Madame Sostan
TTITLE7=Cherokee Waltz
TTITLE8=Who - Diggie
TTITLE9=Oh Yea Yi - Yi
TTITLE10=La Jolie Blonde
TTITLE11=For the last Time
TTITLE12=Musican's Paradise
TTITLE13=Laisser Les Cajun Dancer
TTITLE14=Give me Another Chance
TTITLE15=J'ai Pleurer Pour Toi
TTITLE16=Oh Lucille
TTITLE17=I'm not a fool Anymore
TTITLE18=Cajun Fugitive
TTITLE19=Won't be Satisfied
TTITLE20=Chere Tout Toute
TTITLE21=Cette la J'aime
TTITLE22=Roll on Wagon Wheel
TTITLE23=She didn't know i was Married
TTITLE24=Heart Broken Waltz
TTITLE25=The Cajun Streak
EXTD=
EXTT0=
EXTT1=
EXTT2=
EXTT3=
EXTT4=
EXTT5=
EXTT6=
EXTT7=
EXTT8=
EXTT9=
EXTT10=
EXTT11=
EXTT12=
EXTT13=
EXTT14=
EXTT15=
EXTT16=
EXTT17=
EXTT18=
EXTT19=
EXTT20=
EXTT21=
EXTT22=
EXTT23=
EXTT24=
EXTT25=
PLAYORDER=
